<?xml version="1.0" encoding="UTF-8" standalone="no"?>
<svg
   xmlns:dc="http://purl.org/dc/elements/1.1/"
   xmlns:cc="http://creativecommons.org/ns#"
   xmlns:rdf="http://www.w3.org/1999/02/22-rdf-syntax-ns#"
   xmlns:svg="http://www.w3.org/2000/svg"
   xmlns="http://www.w3.org/2000/svg"
   xmlns:sodipodi="http://sodipodi.sourceforge.net/DTD/sodipodi-0.dtd"
   xmlns:inkscape="http://www.inkscape.org/namespaces/inkscape"
   sodipodi:docname="astro-ui.svg"
   inkscape:version="1.0 (4035a4fb49, 2020-05-01)"
   inkscape:export-ydpi="72.610001"
   inkscape:export-xdpi="72.610001"
   inkscape:export-filename="C:\Users\drgau\OneDrive\Pictures\astro-ui.png"
   id="svg1186"
   version="1.1"
   viewBox="0 0 307.05845 310.67586"
   height="1174.208"
   width="1160.5359">
  <title
     id="title1759">astro ui logo</title>
  <defs
     id="defs1180" />
  <sodipodi:namedview
     width="100px"
     scale-x="1"
     inkscape:window-maximized="0"
     inkscape:window-y="227"
     inkscape:window-x="2024"
     inkscape:window-height="967"
     inkscape:window-width="1274"
     fit-margin-bottom="100"
     fit-margin-right="100"
     fit-margin-left="100"
     fit-margin-top="100"
     lock-margins="true"
     units="px"
     showgrid="false"
     inkscape:document-rotation="0"
     inkscape:current-layer="layer1"
     inkscape:document-units="mm"
     inkscape:cy="-119.20446"
     inkscape:cx="272.24285"
     inkscape:zoom="0.22627417"
     inkscape:pageshadow="2"
     inkscape:pageopacity="0.0"
     borderopacity="1.0"
     bordercolor="#666666"
     pagecolor="#ffffff"
     id="base" />
  <metadata
     id="metadata1183">
    <rdf:RDF>
      <cc:Work
         rdf:about="">
        <dc:format>image/svg+xml</dc:format>
        <dc:type
           rdf:resource="http://purl.org/dc/dcmitype/StillImage" />
        <dc:title>astro ui logo</dc:title>
      </cc:Work>
    </rdf:RDF>
  </metadata>
  <g
     transform="translate(-7094.3593,2219.4194)"
     id="layer1"
     inkscape:groupmode="layer"
     inkscape:label="Layer 1">
    <path
       id="astro-ui-body"
       style="fill:#09003c;fill-opacity:1;stroke-width:0.858976"
       d="m 7176.607,-2192.9611 c -5.5795,0 -8.3671,0 -10.7234,1.0372 a 13.125887,14.38863 0 0 0 -5.3183,4.3152 c -1.5967,2.1663 -2.411,5.0892 -4.0437,10.936 l -35.704,127.959 a 147.85596,162.08008 0 0 1 42.6695,-15.7899 l 22.8545,-85.6456 a 3.0109385,3.3005985 0 0 1 5.7776,0 l 19.1215,70.8352 c -0.1032,0 -0.1032,-0.1033 -0.1652,-0.1033 l 4.1635,14.9209 v 0 l 31.5312,113.0061 c 1.6328,5.8468 2.4481,8.7697 4.0437,10.935 1.4068,1.9124 3.2377,3.3976 5.3184,4.3151 2.3572,1.0383 5.1449,1.0383 10.7233,1.0383 h 52.4805 c 5.5836,0 8.3775,0 10.7348,-1.0403 2.0827,-0.9186 3.9147,-2.4069 5.3235,-4.3224 1.5945,-2.1694 2.4068,-5.0985 4.0333,-10.9546 l 35.5317,-127.9486 c -11.3303,9.4993 -32.8936,8.4166 -45.0692,0.516 l -20.5436,100.9504 c -0.3819,1.4057 -1.5564,2.3676 -2.893,2.3655 -1.3355,0 -29.4877,0.9392 -29.8633,-0.4644 l -18.9729,-72.6805 a 147.90518,162.13403 0 0 1 0.1032,0.1032 l -1.4119,-5.0851 -2.5698,-9.844 c -0.1033,0 -0.1239,0 -0.1755,0 l -31.3764,-112.9876 c -1.6256,-5.855 -2.4388,-8.7851 -4.0334,-10.9545 v 0 a 13.12999,14.393127 0 0 0 -5.3225,-4.3224 c -2.3583,-1.0403 -5.1511,-1.0403 -10.7357,-1.0403 z" />
    <path
       sodipodi:nodetypes="csccscccccccc"
       style="fill:#ff6600"
       stroke-width="1.02991"
       fill-rule="evenodd"
       fill="#ff9955"
       clip-rule="evenodd"
       d="m 7354.5829,-2085.264 c 8.4879,0.1032 16.8395,-4.8374 23.0815,-13.8496 1.5523,-2.2448 0.7535,-6.3896 0.6296,-9.7232 0,0 -0.1032,-16.4267 -7.6931,-27.0655 0.2477,5.9098 -2.5823,11.0124 -6.3112,11.3974 -6.3907,0.6605 -6.7468,-8.1772 -7.0347,-15.3471 v -0.6503 c -0.4438,-10.8823 -5.0273,-19.7768 -11.1579,-23.0929 1.0414,2.9023 1.6544,6.142 1.7876,9.4735 0.4231,10.3787 -3.2594,14.6412 -7.5436,19.5931 -3.4069,3.9406 -7.1946,8.3176 -9.588,16.565 -1.2901,4.4411 -1.8103,9.586 -1.6049,14.4647 0.5057,10.4261 15.3161,18.1286 25.4646,18.2246 z"
       id="astro-ui-flame" />
  </g>
</svg>
