<svg width="22737" height="17542" version="1.1" viewBox="0 0 2274 1754.4" xmlns="http://www.w3.org/2000/svg" xmlns:xlink="http://www.w3.org/1999/xlink">
 <title>Astro UI Logo</title>
 <defs>
  <linearGradient id="paint0_linear" x1="144.6" x2="95.791" y1="5.423" y2="173.38" gradientUnits="userSpaceOnUse">
   <stop stop-color="#000014" offset="0"/>
   <stop stop-color="#150426" offset="1"/>
  </linearGradient>
 </defs>
 <g transform="matrix(15.486 0 0 15.486 14.765 29.346)">
  <g id="Astro-UI-Logo" transform="matrix(.11307 0 0 .11307 21.375 33.005)" fill="none">
   <g id="group-Astro-Logo" transform="matrix(4.0538 0 0 4.0538 -241.83 -349.76)" clip-rule="evenodd" fill-rule="evenodd">
    <path id="Astro_A" d="m131.01 18.929c1.944 2.413 2.935 5.67 4.917 12.181l43.309 142.27a180.28 180.28 0 0 0-51.778-17.53l-28.198-95.29a3.67 3.67 0 0 0-7.042 0.01l-27.857 95.232a180.22 180.22 0 0 0-52.01 17.557l43.52-142.28c1.99-6.502 2.983-9.752 4.927-12.16a15.999 15.999 0 0 1 6.484-4.798c2.872-1.154 6.271-1.154 13.07-1.154h31.085c6.807 0 10.211 0 13.086 1.157a16.004 16.004 0 0 1 6.487 4.806z" fill="url(#paint0_linear)"/>
    <path id="Astro_Flame" d="m135.7 185.07c-7.139 6.105-21.39 10.268-37.804 10.268-20.147 0-37.033-6.272-41.513-14.707-1.602 4.835-1.961 10.367-1.961 13.902 0 0-1.056 17.355 11.015 29.426 0-6.268 5.081-11.349 11.35-11.349 10.742 0 10.73 9.373 10.72 16.977v0.679c0 11.542 7.054 21.436 17.086 25.606a23.27 23.27 0 0 1-2.339-10.2c0-11.008 6.463-15.107 13.974-19.87 5.976-3.79 12.616-8.001 17.192-16.449a31.024 31.024 0 0 0 3.743-14.82c0-3.299-0.513-6.479-1.463-9.463z" fill="#f60"/>
   </g>
   <g id="group-UI" transform="matrix(3.4354 0 0 2.6079 -141.24 -264.75)">
    <path id="Astro_I_Flame" d="m334.61 53.832c9.4878 0.08223 19.605-8.7075 24.806-20.181 1.2593-2.7785 0.85467-6.5154 0.7015-9.9142 0 0-0.0502-16.752-8.6001-27.601 0.27167 6.0264-2.8868 11.23-7.0555 11.623-7.1432 0.67313-7.5413-8.3392-7.8643-15.651l-0.0292-0.65282c-0.50021-11.097-5.6197-20.167-12.471-23.548 1.1644 2.9591 1.8475 6.2627 1.9975 9.6601 0.47707 10.584-3.643 14.929-8.4312 19.98-3.8097 4.0184-8.0425 8.4829-10.719 16.892-1.4414 4.5294-2.0224 9.7754-1.7928 14.75 0.55625 10.632 18.114 24.545 29.458 24.644z" clip-rule="evenodd" fill="#f60" fill-rule="evenodd" stroke-width="1.0996"/>
    <path id="Astro-U" d="m242.91 235.19c-0.94857-0.22605-5.521-0.11118-6.4949-0.17722-21.788-1.4706-41.36 18.798-37.777-169.44-2.5692-1.4917 19.595 4.1078 54.111 0.36016 17.073-1.8537-3.8838 36.562-10.142 51.017-10.165 23.479-11.428 49.681-0.36958 66.303 12.779 19.208 39.888 14.764 57.717 9.4948 19.927-5.8893-3.4697 46.421-13.131 43.357" clip-rule="evenodd" fill="#07011a" fill-rule="evenodd" stroke-width=".8727"/>
    <path id="Astro-I" d="m304.3 54.938c12.544 19.733 44.673 21.697 55.667 2.7637l-1.8965 163.81c-0.25639 22.146-7.0535 12.906-62.259 14.663 64.257-48.962 17.756-161.62 8.4866-181.24z" fill="#060119" stroke-linecap="round" stroke-linejoin="round" stroke-width="7.1504" style="paint-order:markers stroke fill"/>
   </g>
  </g>
 </g>
</svg>
